<?xml version="1.0" encoding="iso-8859-1"?>
<!-- Uploaded to: SVG Repo, www.svgrepo.com, Generator: SVG Repo Mixer Tools -->
<svg height="800px" width="800px" version="1.1" id="Layer_1" xmlns="http://www.w3.org/2000/svg" xmlns:xlink="http://www.w3.org/1999/xlink" 
	 viewBox="0 0 300.16 300.16" xml:space="preserve">
<g>
	<g>
		<path style="fill:#333333;" d="M290.477,96.826V82.302c0-29.362-23.892-53.254-53.254-53.254c-12.95,0-24.826,4.657-34.063,12.369
			c-5.025-2.459-10.191-4.657-15.473-6.386l-3.011,9.198c3.829,1.254,7.577,2.803,11.275,4.478
			c-7.48,9.174-11.982,20.866-11.982,33.594v14.524h-9.683v38.73h9.683v-9.683h14.524v-9.683h-14.524v-9.683h19.365h67.778h19.365
			v9.683h-14.524v9.683h14.524v48.413h-14.524v9.683h14.524v9.683H183.969v-9.683h14.524v-9.683h-14.524v-9.683h-9.683v38.73H300.16
			V96.826H290.477z M213.017,96.826V82.302c0-13.347,10.859-24.206,24.206-24.206s24.206,10.859,24.206,24.206v14.524
			C261.429,96.826,213.017,96.826,213.017,96.826z M271.112,96.826V82.302c0-18.682-15.202-33.889-33.889-33.889
			s-33.889,15.207-33.889,33.889v14.524h-9.683V82.302c0-24.027,19.549-43.572,43.572-43.572s43.572,19.544,43.572,43.572v14.524
			C280.795,96.826,271.112,96.826,271.112,96.826z"/>
		<path style="fill:#333333;" d="M98.336,259.512c6.071,2.881,12.418,5.258,18.862,7.073l2.624-9.324
			c-5.926-1.665-11.759-3.854-17.341-6.497L98.336,259.512z"/>
		<path style="fill:#333333;" d="M138.015,260.781l-1.036,9.624c4.299,0.465,8.705,0.702,13.101,0.707
			c2.358,0,4.701-0.073,7.03-0.203l-0.552-9.663C150.409,261.594,144.091,261.434,138.015,260.781z"/>
		<path style="fill:#333333;" d="M41.771,204.089c2.997,5.998,6.521,11.793,10.477,17.211l7.824-5.703
			c-3.636-4.987-6.879-10.317-9.639-15.836L41.771,204.089z"/>
		<path style="fill:#333333;" d="M65.415,236.536c4.788,4.696,10.007,9.024,15.507,12.863l5.543-7.945
			c-5.059-3.529-9.862-7.514-14.267-11.832L65.415,236.536z"/>
		<path style="fill:#333333;" d="M236.69,220.022l7.533,6.081c4.217-5.214,8.022-10.82,11.314-16.654l-8.429-4.754
			C244.078,210.059,240.573,215.214,236.69,220.022z"/>
		<path style="fill:#333333;" d="M174.911,258.655l2.154,9.436c6.541-1.496,13.004-3.549,19.205-6.115l-3.699-8.947
			C186.869,255.387,180.929,257.28,174.911,258.655z"/>
		<path style="fill:#333333;" d="M209.047,244.538l5.141,8.206c5.679-3.558,11.106-7.62,16.131-12.074l-6.424-7.243
			C219.267,237.528,214.27,241.265,209.047,244.538z"/>
		<path style="fill:#333333;" d="M222.699,169.445v14.524h29.048v-35.68c3.098-3.529,4.841-8.056,4.841-12.733
			c0-10.68-8.685-19.365-19.365-19.365s-19.365,8.685-19.365,19.365h9.683c0-5.34,4.343-9.683,9.683-9.683s9.683,4.343,9.683,9.683
			c0,2.73-1.152,5.277-3.244,7.16l-1.598,1.443v30.127h-9.683v-4.841L222.699,169.445L222.699,169.445z"/>
		<path style="fill:#333333;" d="M66.389,76.667l-7.276-6.381c-4.43,5.045-8.463,10.491-11.987,16.184l8.23,5.098
			C58.604,86.325,62.317,81.314,66.389,76.667z"/>
		<path style="fill:#F9BA48;" d="M242.064,144.159l1.598-1.443c2.091-1.883,3.244-4.43,3.244-7.16c0-1.772-0.513-3.413-1.346-4.841
			H112.831c-8.133-22.977-30.137-38.73-54.736-38.73C26.061,91.984,0,118.045,0,150.08s26.061,58.095,58.095,58.095
			c24.599,0,46.602-15.754,54.736-38.73h129.233V144.159z"/>
		<path style="fill:#333333;" d="M82.302,164.604c0-10.68-8.685-19.365-19.365-19.365h-9.683c-5.34,0-9.683-4.343-9.683-9.683
			s4.343-9.683,9.683-9.683h9.683c5.34,0,9.683,4.343,9.683,9.683v4.841h9.683v-4.841c0-10.68-8.685-19.365-19.365-19.365v-4.841
			h-9.683v4.841c-10.68,0-19.365,8.685-19.365,19.365s8.685,19.365,19.365,19.365h9.683c5.34,0,9.683,4.343,9.683,9.683
			s-4.343,9.683-9.683,9.683h-9.683c-5.34,0-9.683-4.343-9.683-9.683v-4.841h-9.683v4.841c0,10.68,8.685,19.365,19.365,19.365v4.841
			h9.683v-4.841C73.617,183.969,82.302,175.284,82.302,164.604z"/>
		<path style="fill:#333333;" d="M108.488,36.387l3.331,9.097c5.79-2.12,11.803-3.767,17.874-4.89l-1.757-9.523
			C121.327,32.291,114.787,34.083,108.488,36.387z"/>
		<path style="fill:#333333;" d="M150.08,29.048l-2.12,0.019l0.203,9.683l1.922-0.019c0.029,0,0.058,0,0.087,0
			c5.505,0,11.043,0.412,16.465,1.23l1.438-9.581c-5.897-0.886-11.919-1.331-17.898-1.331
			C150.143,29.048,150.114,29.048,150.08,29.048z"/>
		<path style="fill:#333333;" d="M73.602,56.29l6.124,7.499c4.798-3.917,9.939-7.446,15.284-10.496l-4.798-8.404
			C84.403,48.195,78.816,52.034,73.602,56.29z"/>
	</g>
</g>
</svg>